<?xml version="1.0" standalone="no"?>
<!DOCTYPE svg PUBLIC "-//W3C//DTD SVG 20010904//EN"
 "http://www.w3.org/TR/2001/REC-SVG-20010904/DTD/svg10.dtd">
<svg version="1.0" xmlns="http://www.w3.org/2000/svg"
 width="1280.000000pt" height="819.000000pt" viewBox="0 0 1280.000000 819.000000"
 preserveAspectRatio="xMidYMid meet">

<g transform="translate(0.000000,819.000000) scale(0.100000,-0.100000)"
fill="#000000" stroke="none">
<path d="M2494 8179 c-121 -11 -324 -47 -449 -79 -286 -72 -434 -176 -530
-374 -65 -134 -132 -350 -175 -567 -11 -55 -11 -55 -108 -124 -311 -221 -564
-450 -661 -600 -105 -162 -192 -370 -275 -657 -51 -178 -79 -335 -100 -573 -9
-93 -36 -390 -61 -660 -110 -1214 -130 -1562 -129 -2315 1 -572 17 -944 50
-1140 45 -266 157 -475 355 -665 277 -265 584 -403 943 -422 313 -16 559 82
846 341 114 102 202 207 305 361 149 224 257 424 502 930 92 189 120 240 163
285 40 42 139 166 167 209 1 2 46 -32 100 -76 147 -118 223 -170 306 -208 249
-115 584 -150 872 -91 168 35 313 83 450 151 300 147 426 280 598 627 l72 147
665 0 665 0 72 -147 c172 -347 298 -480 598 -627 379 -187 786 -228 1161 -119
169 48 260 101 467 267 54 44 99 78 100 76 25 -39 125 -165 157 -199 63 -67
78 -95 234 -418 351 -732 550 -1024 855 -1260 161 -125 295 -193 448 -229 115
-27 362 -24 500 5 280 60 502 180 728 394 200 189 314 402 359 668 37 222 61
850 52 1365 -11 654 -36 1057 -141 2200 -20 209 -42 457 -51 550 -22 248 -49
397 -109 600 -82 277 -168 481 -272 640 -91 139 -316 343 -628 570 -85 61
-122 95 -127 113 -4 15 -21 86 -38 157 -41 175 -92 330 -147 445 -118 245
-336 357 -838 431 -351 51 -640 25 -853 -77 -109 -52 -237 -183 -359 -366 -74
-110 -97 -154 -121 -230 -36 -112 -65 -251 -89 -420 l-18 -125 -2605 0 -2605
0 -18 125 c-24 169 -53 308 -89 420 -24 76 -47 120 -121 230 -122 182 -251
314 -357 365 -185 89 -440 123 -716 96z m8065 -1369 c194 -32 347 -179 387
-372 26 -125 -4 -262 -80 -366 -53 -72 -104 -113 -193 -154 -57 -27 -82 -33
-160 -36 -145 -7 -259 36 -357 134 -99 99 -141 214 -134 359 4 81 10 104 42
170 64 136 180 228 327 259 80 18 90 18 168 6z m-7879 -539 l0 -279 -65 -80
c-92 -114 -214 -233 -268 -262 l-47 -25 -47 25 c-54 28 -178 148 -270 262
l-63 76 0 281 0 281 380 0 380 0 0 -279z m6785 -466 c181 -48 315 -196 347
-382 51 -307 -229 -587 -534 -535 -274 47 -451 313 -383 575 23 87 61 155 124
218 119 118 287 165 446 124z m2265 4 c234 -54 392 -285 359 -526 -27 -196
-191 -361 -393 -396 -174 -30 -367 59 -467 214 -90 141 -92 344 -6 492 34 57
133 148 192 177 97 47 216 62 315 39z m-9901 -91 c168 -140 271 -260 271 -316
0 -47 -126 -187 -284 -316 l-70 -56 -283 0 -283 0 0 373 c0 206 3 377 7 380 3
4 130 7 281 7 l275 0 86 -72z m1589 -310 l2 -378 -284 0 -285 0 -63 51 c-84
69 -201 183 -249 242 -53 66 -52 97 5 173 50 68 95 112 221 218 l90 76 280 -2
280 -3 3 -377z m4244 55 c197 -64 356 -118 354 -120 -2 -2 -166 -57 -365 -122
l-361 -118 0 238 c0 132 3 239 7 239 4 0 168 -53 365 -117z m-2212 -118 l0
-225 -365 0 -365 0 0 225 0 225 365 0 365 0 0 -225z m-3078 -195 c52 -34 165
-151 251 -256 l57 -72 -2 -278 -3 -279 -377 -3 -378 -2 0 283 0 284 61 74
c142 171 265 279 319 279 15 0 47 -14 72 -30z m8257 -349 c269 -84 403 -394
280 -648 -133 -275 -488 -352 -725 -158 -97 80 -164 226 -164 360 0 210 152
408 347 454 69 16 197 12 262 -8z m-6108 -825 c180 -45 317 -125 441 -254 180
-188 269 -426 255 -682 -11 -191 -70 -354 -187 -509 -137 -181 -344 -305 -577
-346 -261 -46 -532 30 -742 207 -162 135 -277 341 -312 552 -16 104 -7 290 20
384 98 338 357 581 701 658 30 6 112 12 181 13 103 1 144 -3 220 -23z m4107 8
c176 -36 331 -121 462 -254 270 -273 342 -682 181 -1026 -49 -104 -86 -158
-170 -246 -117 -125 -267 -213 -441 -259 -68 -18 -112 -23 -220 -23 -158 0
-252 21 -388 85 -355 165 -566 541 -522 928 32 285 200 544 446 688 73 44 190
90 269 106 95 21 286 21 383 1z"/>
</g>
</svg>
